<svg width="100" height="73" viewBox="0 0 100 73" fill="none" xmlns="http://www.w3.org/2000/svg">
<path fill-rule="evenodd" clip-rule="evenodd" d="M76.6967 67.689C77.5969 67.1802 78.4731 66.6339 79.3232 66.0523L68.3392 55.7816C67.8831 55.3551 67.8591 54.6398 68.2855 54.1837C68.712 53.7277 69.4273 53.7037 69.8834 54.1301L81.1803 64.6934C81.9306 64.107 82.6572 63.4916 83.3583 62.8489L75.8002 55.7816C75.3442 55.3551 75.3202 54.6398 75.7466 54.1837C76.173 53.7277 76.8884 53.7037 77.3444 54.1301L84.9784 61.2684C91.2439 54.764 95.0968 45.9194 95.0968 36.1749C95.0968 16.1961 78.9007 0 58.9219 0C38.943 0 22.7469 16.1961 22.7469 36.1749C22.7469 56.1538 38.943 72.3498 58.9219 72.3498C64.5281 72.3498 69.8364 71.0746 74.5726 68.7983L60.652 55.7816C60.1959 55.3551 60.1719 54.6398 60.5983 54.1837C61.0248 53.7277 61.7401 53.7037 62.1962 54.1301L76.6967 67.689Z" fill="url(#paint0_linear_29_55)"/>
<path d="M5.92794 12.9632C5.92794 12.9632 86.7611 48.3972 85.6126 48.8346C84.4641 49.272 55.1854 41.0315 51.9329 44.1882C48.6805 47.345 58.7089 57.7359 58.8444 59.1827C58.9799 60.6295 5.92794 12.9632 5.92794 12.9632Z" fill="#383838"/>
<path d="M99.8448 25.0963C98.149 26.1137 89.0649 26.9365 79.8497 30.4879C70.6344 34.0392 72.3962 37.0855 74.2934 39.5846C76.1907 42.0837 54.8318 31.6505 54.0599 30.4879C53.2881 29.3252 60.1995 24.4585 71.8541 23.8009C83.5087 23.1432 101.54 24.0789 99.8448 25.0963Z" fill="#383838"/>
<defs>
<linearGradient id="paint0_linear_29_55" x1="58.9219" y1="0" x2="58.9219" y2="72.3498" gradientUnits="userSpaceOnUse">
<stop stop-color="#FB7F26"/>
<stop offset="1" stop-color="#FF8A35"/>
</linearGradient>
</defs>
</svg>
